<svg xmlns="http://www.w3.org/2000/svg" viewBox="0 0 64 80" x="0px" y="0px"><title>Food</title><g><path d="M57.94,30.32A5.94,5.94,0,0,0,56,30H16a1,1,0,0,1,0-2H57.69A26,26,0,0,0,6.06,30.32h0A6,6,0,0,0,6,41.65,5.8,5.8,0,0,0,8,42H50a1,1,0,0,1,0,2H6v8a6,6,0,0,0,6,6H52a6,6,0,0,0,6-6V41.65a6,6,0,0,0-.06-11.33Z"/></g><text x="0" y="79" fill="#000000" font-size="5px" font-weight="bold" font-family="'Helvetica Neue', Helvetica, Arial-Unicode, Arial, Sans-serif">Created by Wahyu Unggul Sejati</text><text x="0" y="84" fill="#000000" font-size="5px" font-weight="bold" font-family="'Helvetica Neue', Helvetica, Arial-Unicode, Arial, Sans-serif">from the Noun Project</text></svg>